<svg xmlns="http://www.w3.org/2000/svg" version="1.1" xmlns:xlink="http://www.w3.org/1999/xlink" xmlns:svgjs="http://svgjs.dev/svgjs" width="1440" height="560" preserveAspectRatio="none" viewBox="0 0 1440 560">
  <g mask="url(&quot;#SvgjsMask3817&quot;)" fill="none">
    <rect width="1440" height="560" x="0" y="0" fill="url(&quot;#SvgjsLinearGradient3818&quot;)"></rect>
    <path d="M571 294L570 99" stroke-width="6" stroke="url(&quot;#SvgjsLinearGradient3819&quot;)" stroke-linecap="round" class="Down"></path>
    <path d="M919 365L918 740" stroke-width="6" stroke="url(&quot;#SvgjsLinearGradient3819&quot;)" stroke-linecap="round" class="Down"></path>
    <path d="M405 366L404 211" stroke-width="10" stroke="url(&quot;#SvgjsLinearGradient3820&quot;)" stroke-linecap="round" class="Up"></path>
    <path d="M715 54L714 404" stroke-width="10" stroke="url(&quot;#SvgjsLinearGradient3819&quot;)" stroke-linecap="round" class="Down"></path>
    <path d="M1017 275L1016 64" stroke-width="6" stroke="url(&quot;#SvgjsLinearGradient3820&quot;)" stroke-linecap="round" class="Up"></path>
    <path d="M1214 337L1213 511" stroke-width="10" stroke="url(&quot;#SvgjsLinearGradient3819&quot;)" stroke-linecap="round" class="Down"></path>
    <path d="M183 372L182 600" stroke-width="10" stroke="url(&quot;#SvgjsLinearGradient3819&quot;)" stroke-linecap="round" class="Down"></path>
    <path d="M819 334L818 -83" stroke-width="10" stroke="url(&quot;#SvgjsLinearGradient3820&quot;)" stroke-linecap="round" class="Up"></path>
    <path d="M1415 523L1414 798" stroke-width="8" stroke="url(&quot;#SvgjsLinearGradient3820&quot;)" stroke-linecap="round" class="Up"></path>
    <path d="M1358 444L1357 777" stroke-width="10" stroke="url(&quot;#SvgjsLinearGradient3820&quot;)" stroke-linecap="round" class="Up"></path>
    <path d="M626 117L625 323" stroke-width="8" stroke="url(&quot;#SvgjsLinearGradient3820&quot;)" stroke-linecap="round" class="Up"></path>
    <path d="M1028 64L1027 217" stroke-width="6" stroke="url(&quot;#SvgjsLinearGradient3820&quot;)" stroke-linecap="round" class="Up"></path>
    <path d="M331 546L330 930" stroke-width="8" stroke="url(&quot;#SvgjsLinearGradient3820&quot;)" stroke-linecap="round" class="Up"></path>
    <path d="M89 416L88 259" stroke-width="10" stroke="url(&quot;#SvgjsLinearGradient3820&quot;)" stroke-linecap="round" class="Up"></path>
    <path d="M527 412L526 177" stroke-width="8" stroke="url(&quot;#SvgjsLinearGradient3819&quot;)" stroke-linecap="round" class="Down"></path>
    <path d="M1162 449L1161 235" stroke-width="8" stroke="url(&quot;#SvgjsLinearGradient3819&quot;)" stroke-linecap="round" class="Down"></path>
    <path d="M480 74L479 -148" stroke-width="10" stroke="url(&quot;#SvgjsLinearGradient3819&quot;)" stroke-linecap="round" class="Down"></path>
    <path d="M554 94L553 -115" stroke-width="8" stroke="url(&quot;#SvgjsLinearGradient3819&quot;)" stroke-linecap="round" class="Down"></path>
    <path d="M1380 313L1379 607" stroke-width="10" stroke="url(&quot;#SvgjsLinearGradient3819&quot;)" stroke-linecap="round" class="Down"></path>
    <path d="M505 310L504 657" stroke-width="6" stroke="url(&quot;#SvgjsLinearGradient3820&quot;)" stroke-linecap="round" class="Up"></path>
    <path d="M1217 97L1216 508" stroke-width="6" stroke="url(&quot;#SvgjsLinearGradient3820&quot;)" stroke-linecap="round" class="Up"></path>
    <path d="M951 189L950 355" stroke-width="8" stroke="url(&quot;#SvgjsLinearGradient3819&quot;)" stroke-linecap="round" class="Down"></path>
    <path d="M533 113L532 268" stroke-width="6" stroke="url(&quot;#SvgjsLinearGradient3819&quot;)" stroke-linecap="round" class="Down"></path>
    <path d="M932 103L931 490" stroke-width="10" stroke="url(&quot;#SvgjsLinearGradient3820&quot;)" stroke-linecap="round" class="Up"></path>
    <path d="M1117 80L1116 -267" stroke-width="10" stroke="url(&quot;#SvgjsLinearGradient3820&quot;)" stroke-linecap="round" class="Up"></path>
    <path d="M492 205L491 622" stroke-width="6" stroke="url(&quot;#SvgjsLinearGradient3820&quot;)" stroke-linecap="round" class="Up"></path>
    <path d="M740 196L739 -109" stroke-width="6" stroke="url(&quot;#SvgjsLinearGradient3820&quot;)" stroke-linecap="round" class="Up"></path>
    <path d="M387 551L386 957" stroke-width="8" stroke="url(&quot;#SvgjsLinearGradient3820&quot;)" stroke-linecap="round" class="Up"></path>
    <path d="M1064 212L1063 -60" stroke-width="10" stroke="url(&quot;#SvgjsLinearGradient3820&quot;)" stroke-linecap="round" class="Up"></path>
    <path d="M952 542L951 193" stroke-width="10" stroke="url(&quot;#SvgjsLinearGradient3819&quot;)" stroke-linecap="round" class="Down"></path>
    <path d="M47 387L46 40" stroke-width="8" stroke="url(&quot;#SvgjsLinearGradient3820&quot;)" stroke-linecap="round" class="Up"></path>
    <path d="M1228 303L1227 -78" stroke-width="8" stroke="url(&quot;#SvgjsLinearGradient3819&quot;)" stroke-linecap="round" class="Down"></path>
    <path d="M358 236L357 402" stroke-width="10" stroke="url(&quot;#SvgjsLinearGradient3819&quot;)" stroke-linecap="round" class="Down"></path>
    <path d="M232 146L231 -27" stroke-width="10" stroke="url(&quot;#SvgjsLinearGradient3819&quot;)" stroke-linecap="round" class="Down"></path>
    <path d="M1074 356L1073 524" stroke-width="6" stroke="url(&quot;#SvgjsLinearGradient3820&quot;)" stroke-linecap="round" class="Up"></path>
    <path d="M481 309L480 588" stroke-width="8" stroke="url(&quot;#SvgjsLinearGradient3819&quot;)" stroke-linecap="round" class="Down"></path>
  </g>
  <defs>
    <mask id="SvgjsMask3817">
      <rect width="1440" height="560" fill="#ffffff"></rect>
    </mask>
    <linearGradient x1="50%" y1="100%" x2="50%" y2="0%" gradientUnits="userSpaceOnUse" id="SvgjsLinearGradient3818">
      <stop stop-color="rgba(29, 84, 155, 1)" offset="0"></stop>
      <stop stop-color="rgba(12, 12, 12, 1)" offset="0.63"></stop>
    </linearGradient>
    <linearGradient x1="0%" y1="0%" x2="0%" y2="100%" id="SvgjsLinearGradient3819">
      <stop stop-color="rgba(165, 24, 169, 0)" offset="0"></stop>
      <stop stop-color="rgba(165, 24, 169, 1)" offset="1"></stop>
    </linearGradient>
    <linearGradient x1="0%" y1="100%" x2="0%" y2="0%" id="SvgjsLinearGradient3820">
      <stop stop-color="rgba(165, 24, 169, 0)" offset="0"></stop>
      <stop stop-color="rgba(165, 24, 169, 1)" offset="1"></stop>
    </linearGradient>
  </defs>
</svg>