<svg id="visual" viewBox="0 0 900 600" width="900" height="600" xmlns="http://www.w3.org/2000/svg" xmlns:xlink="http://www.w3.org/1999/xlink" version="1.1"><path d="M0 67L900 85L900 0L0 0Z" fill="#000000"></path><path d="M0 73L900 169L900 83L0 65Z" fill="#200075"></path><path d="M0 253L900 301L900 167L0 71Z" fill="#3a0088"></path><path d="M0 259L900 331L900 299L0 251Z" fill="#50009c"></path><path d="M0 337L900 391L900 329L0 257Z" fill="#6600b0"></path><path d="M0 439L900 481L900 389L0 335Z" fill="#7701c0"></path><path d="M0 475L900 559L900 479L0 437Z" fill="#8802d1"></path><path d="M0 601L900 595L900 557L0 473Z" fill="#9a01e2"></path><path d="M0 601L900 601L900 593L0 599Z" fill="#ac00f2"></path></svg>